<svg xmlns="http://www.w3.org/2000/svg" viewBox="0 0 32 32">
  <!-- Wood background with gradient -->
  <defs>
    <linearGradient id="woodGradient" x1="0%" y1="0%" x2="100%" y2="100%">
      <stop offset="0%" style="stop-color:#A0522D;stop-opacity:1" />
      <stop offset="50%" style="stop-color:#8B4513;stop-opacity:1" />
      <stop offset="100%" style="stop-color:#654321;stop-opacity:1" />
    </linearGradient>
    <linearGradient id="highlight" x1="0%" y1="0%" x2="0%" y2="100%">
      <stop offset="0%" style="stop-color:#FFFFFF;stop-opacity:0.3" />
      <stop offset="100%" style="stop-color:#FFFFFF;stop-opacity:0" />
    </linearGradient>
  </defs>
  
  <!-- Wood background -->
  <rect width="32" height="32" fill="url(#woodGradient)" rx="6"/>
  
  <!-- Wood grain lines -->
  <path d="M2 6 Q16 4 30 6" stroke="#A0522D" stroke-width="1.5" fill="none" opacity="0.8"/>
  <path d="M2 10 Q16 8 30 10" stroke="#A0522D" stroke-width="1" fill="none" opacity="0.6"/>
  <path d="M2 14 Q16 12 30 14" stroke="#A0522D" stroke-width="1.5" fill="none" opacity="0.8"/>
  <path d="M2 18 Q16 16 30 18" stroke="#A0522D" stroke-width="1" fill="none" opacity="0.6"/>
  <path d="M2 22 Q16 20 30 22" stroke="#A0522D" stroke-width="1.5" fill="none" opacity="0.8"/>
  <path d="M2 26 Q16 24 30 26" stroke="#A0522D" stroke-width="1" fill="none" opacity="0.6"/>
  
  <!-- Central tree/wood symbol -->
  <g transform="translate(16, 16)">
    <!-- Tree trunk -->
    <rect x="-1.5" y="1" width="3" height="8" fill="#654321" rx="1.5"/>
    
    <!-- Tree canopy with gradient -->
    <defs>
      <radialGradient id="treeGradient" cx="50%" cy="30%" r="70%">
        <stop offset="0%" style="stop-color:#32CD32;stop-opacity:1" />
        <stop offset="100%" style="stop-color:#228B22;stop-opacity:1" />
      </radialGradient>
    </defs>
    
    <circle cx="0" cy="-3" r="5" fill="url(#treeGradient)"/>
    <circle cx="-3" cy="-1" r="3.5" fill="#32CD32" opacity="0.8"/>
    <circle cx="3" cy="-1" r="3.5" fill="#32CD32" opacity="0.8"/>
    
    <!-- Wood rings for detail -->
    <circle cx="0" cy="0" r="2" fill="none" stroke="#8B4513" stroke-width="0.5" opacity="0.7"/>
    <circle cx="0" cy="0" r="3" fill="none" stroke="#8B4513" stroke-width="0.3" opacity="0.5"/>
  </g>
  
  <!-- Top highlight -->
  <rect x="0" y="0" width="32" height="6" fill="url(#highlight)" opacity="0.4" rx="6"/>
</svg>